<?xml version="1.0" encoding="UTF-8"?>
<svg id="Layer_1" data-name="Layer 1" xmlns="http://www.w3.org/2000/svg" viewBox="0 0 102 86.06">
  <defs>
    <style>
      .cls-1 {
        fill: #4151a0;
      }

      .cls-1, .cls-2 {
        stroke-width: 0px;
      }

      .cls-2 {
        fill: #9e322b;
      }
    </style>
  </defs>
  <path class="cls-1" d="m58.78,9.77c-.37-.56-.92-1.35-1.69-2.2-3.2-3.58-6.95-4.96-8.7-5.6-10.71-3.93-20.37.8-20.37.8-6.81,3.34-10.06,8.86-10.97,10.45-1.13,1.98-1.8,3.78-2.21,5.08,0-2.21,0-4.43,0-6.64,0-3.87-.02-7.72-.04-11.56L0,0c.09,19.92.14,39.84.14,59.77,0,1.4,0,5.35,0,6.75.32,1.97.73,8.25,5.7,13.22,4.91,4.91,11.31,5.57,13.29,5.91h27.42c1.87-.49,4.69-1.46,7.63-3.52,2.58-1.8,4.33-3.79,5.41-5.24-.11-.99-.29-3.73,1.3-6.57,1.23-2.2,2.93-3.41,3.8-3.94.48-2.11,1.01-5.69.25-9.98-.92-5.19-3.23-8.66-4.32-10.27-1.76-2.58-4.46-6.55-9.38-8.62-2.57-1.09-6.87-2.12-10.31-2.3-.51-.03-1.67-.07-3.19-.42-1.34-.31-3.27-.76-4.78-1.97-3.44-2.74-3.02-8-2.95-8.91.11-1.43.29-3.71,2.02-5.48,1.31-1.36,2.88-1.76,4.41-2.16,2.97-.77,5.18-.35,5.74-.23.89.19,2.62.68,3.02,1.27l28.76,48.38c.4.16.93.41,1.53.78.16.1,1.86,1.17,3.11,2.94,2.11,2.98,1.97,6.52,1.92,7.31,1.8,3.02,3.61,6.05,5.41,9.07,5.36-.02,10.72-.03,16.08-.05L58.78,9.77Zm-21.9,40.99c1,.01,2.14-.06,3.83.28,1.54.31,3.88.76,5.91,2.6,2.93,2.66,3.27,6.37,3.3,7.59.04,1.18.12,3.82-1.72,6.26-2.18,2.88-5.46,3.36-6.15,3.45h-20.04c-.44.02-2.97.1-5.03-1.86-1.84-1.76-2.04-3.95-2.07-4.46l.07-32.84c.5,1.83,1.41,4.43,3.09,7.24,1.36,2.26,3.49,5.84,7.73,8.44.68.42,5.39,3.23,11.07,3.3Z"/>
  <circle class="cls-2" cx="70.03" cy="75.45" r="10.62"/>
</svg>